<svg xmlns="http://www.w3.org/2000/svg" width="100" height="100" viewBox="0 0 100 100" fill="none">
  <defs>
    <linearGradient id="tileBackgroundGradient" x1="14" y1="12" x2="86" y2="88" gradientUnits="userSpaceOnUse">
      <stop offset="0" stop-color="#818CF8"/>
      <stop offset="0.58" stop-color="#6366F1"/>
      <stop offset="1" stop-color="#4338CA"/>
    </linearGradient>
    <linearGradient id="slimeBodyGradientTile" x1="24" y1="20" x2="76" y2="82" gradientUnits="userSpaceOnUse">
      <stop offset="0" stop-color="#F5F3FF"/>
      <stop offset="0.45" stop-color="#DDD6FE"/>
      <stop offset="1" stop-color="#C4B5FD"/>
    </linearGradient>
    <linearGradient id="slimeHighlightGradientTile" x1="33" y1="26" x2="60" y2="52" gradientUnits="userSpaceOnUse">
      <stop offset="0" stop-color="#FFFFFF" stop-opacity="0.9"/>
      <stop offset="1" stop-color="#FFFFFF" stop-opacity="0"/>
    </linearGradient>
    <filter id="tileShadow" x="5" y="6" width="90" height="92" filterUnits="userSpaceOnUse">
      <feOffset dy="8"/>
      <feGaussianBlur stdDeviation="6"/>
      <feColorMatrix type="matrix" values="0 0 0 0 0.207843 0 0 0 0 0.184314 0 0 0 0 0.65098 0 0 0 0.26 0"/>
    </filter>
  </defs>
  <g filter="url(#tileShadow)">
    <rect x="14" y="12" width="72" height="72" rx="22" fill="url(#tileBackgroundGradient)"/>
    <rect x="14.75" y="12.75" width="70.5" height="70.5" rx="21.25" stroke="#FFFFFF" stroke-opacity="0.28"/>
  </g>
  <path
    d="M50 16C61.4 16 71.12 20.12 76.86 27.14C81.14 32.38 83.2 38.95 82.87 46.85C82.52 55.1 80.39 61.65 76.48 67.2C71.09 74.89 62.41 80.02 52.52 81.79C51.04 82.05 49.56 82.18 48.09 82.18C42.46 82.18 37.08 80.43 32.26 78.06C24.55 74.28 18.86 67.81 17.34 58.45C16.09 50.69 17.5 43.55 20.42 37.55C22.77 32.72 26.21 28.41 30.49 25.02C35.96 20.69 42.73 16.75 50 16Z"
    fill="url(#slimeBodyGradientTile)"
  />
  <path
    d="M33.2 28.3C37.11 23.95 43.72 21.35 50.44 21.35C56.43 21.35 61.53 22.54 65.51 25.46C60.77 24.57 57.15 24.81 53.73 25.85C46.91 27.92 41.91 33.11 39.22 39.25C38.75 40.32 37.48 40.8 36.45 40.26C34.45 39.2 33 37.45 32.54 35.22C32.08 33 32.32 30.88 33.2 28.3Z"
    fill="url(#slimeHighlightGradientTile)"
  />
  <rect x="37" y="42" width="7" height="18" rx="3.5" fill="#FFFFFF"/>
  <rect x="56" y="42" width="7" height="18" rx="3.5" fill="#FFFFFF"/>
  <path
    d="M28.78 66.37C32.3 71.57 39.43 75.98 50 75.98C60.55 75.98 67.7 71.57 71.22 66.37C67.57 74.55 59.82 79.7 50 79.7C40.18 79.7 32.43 74.55 28.78 66.37Z"
    fill="#312E81"
    fill-opacity="0.14"
  />
</svg>
